<?xml version="1.0"?>
<svg width="500" height="500" xmlns="http://www.w3.org/2000/svg" xmlns:svg="http://www.w3.org/2000/svg">

 <g class="layer">
  <title>Layer 1</title>
  <g id="freepik--background-complete--inject-257">
   <rect fill="none" height="11.19" id="svg_1" stroke="#ebebeb" stroke-miterlimit="10" stroke-width="0.75px" transform="translate(861.29 132.88) rotate(-180)" width="26.48" x="417.41" y="60.85"/>
   <rect fill="none" height="11.19" id="svg_2" stroke="#ebebeb" stroke-miterlimit="10" stroke-width="0.75px" transform="translate(890.84 104.66) rotate(180)" width="26.48" x="432.18" y="46.74"/>
   <rect fill="none" height="11.19" id="svg_3" stroke="#ebebeb" stroke-miterlimit="10" stroke-width="0.75px" transform="translate(526.48 353.13) rotate(180)" width="26.48" x="250" y="170.97"/>
   <rect fill="none" height="11.19" id="svg_4" stroke="#ebebeb" stroke-miterlimit="10" stroke-width="0.75px" transform="translate(556.02 324.91) rotate(180)" width="26.48" x="264.77" y="156.86"/>
   <rect fill="none" height="11.19" id="svg_5" stroke="#ebebeb" stroke-miterlimit="10" stroke-width="0.75px" transform="translate(585.45 353.13) rotate(180)" width="26.48" x="279.49" y="170.97"/>
   <rect fill="none" height="11.19" id="svg_6" stroke="#ebebeb" stroke-miterlimit="10" stroke-width="0.75px" transform="translate(109.16 104.66) rotate(180)" width="26.48" x="41.34" y="46.74"/>
   <rect fill="none" height="11.19" id="svg_7" stroke="#ebebeb" stroke-miterlimit="10" stroke-width="0.75px" transform="translate(138.71 630.89) rotate(180)" width="26.48" x="56.11" y="309.85"/>
   <rect fill="none" height="11.19" id="svg_8" stroke="#ebebeb" stroke-miterlimit="10" stroke-width="0.75px" transform="translate(109.16 602.67) rotate(180)" width="26.48" x="41.34" y="295.74"/>
   <rect fill="none" height="11.19" id="svg_9" stroke="#ebebeb" stroke-miterlimit="10" stroke-width="0.75px" transform="translate(861.29 630.89) rotate(-180)" width="26.48" x="417.41" y="309.85"/>
   <polyline fill="none" id="svg_10" points="208.82 421.54 208.82 295.88 235.55 259.39 235.55 191.06" stroke="#ebebeb" stroke-miterlimit="10"/>
   <path d="m233.18,188.73a2.38,2.38 0 1 0 2.37,-2.38a2.37,2.37 0 0 0 -2.37,2.38z" fill="none" id="svg_11" stroke="#ebebeb" stroke-miterlimit="10"/>
   <polyline fill="none" id="svg_12" points="215.71 421.54 215.71 300.29 242.44 263.8 242.44 216.06" stroke="#ebebeb" stroke-miterlimit="10"/>
   <path d="m240.06,213.72a2.38,2.38 0 1 0 2.38,-2.37a2.38,2.38 0 0 0 -2.38,2.37z" fill="none" id="svg_13" stroke="#ebebeb" stroke-miterlimit="10"/>
   <line fill="none" id="svg_14" stroke="#ebebeb" stroke-miterlimit="10" x1="202.19" x2="202.19" y1="421.54" y2="255.13"/>
   <path d="m199.81,252.75a2.38,2.38 0 1 0 2.38,-2.37a2.38,2.38 0 0 0 -2.38,2.37z" fill="none" id="svg_15" stroke="#ebebeb" stroke-miterlimit="10"/>
   <polyline fill="none" id="svg_16" points="195.8 421.54 195.8 336.96 177.66 302.74 177.66 241.37" stroke="#ebebeb" stroke-miterlimit="10"/>
   <path d="m175.28,239a2.38,2.38 0 1 0 2.38,-2.38a2.37,2.37 0 0 0 -2.38,2.38z" fill="none" id="svg_17" stroke="#ebebeb" stroke-miterlimit="10"/>
   <polyline fill="none" id="svg_18" points="189.45 421.54 189.45 340.62 168.06 302.78 168.06 262.37" stroke="#ebebeb" stroke-miterlimit="10"/>
   <path d="m165.68,260a2.38,2.38 0 1 0 2.38,-2.37a2.39,2.39 0 0 0 -2.38,2.37z" fill="none" id="svg_19" stroke="#ebebeb" stroke-miterlimit="10"/>
   <line fill="none" id="svg_20" stroke="#c7c7c7" stroke-miterlimit="10" x1="110.72" x2="110.72" y1="37.56"/>
   <polygon fill="#ebebeb" id="svg_21" points="133.93 59.92 132.06 64.03 89.38 64.03 87.52 59.92 105.69 47.35 115.76 47.35 133.93 59.92"/>
   <polygon fill="#dbdbdb" id="svg_22" points="117.02 35.23 115.76 47.35 105.69 47.35 104.43 35.23 117.02 35.23"/>
   <polygon fill="#dbdbdb" id="svg_23" points="133.93 59.93 132.06 64.03 89.38 64.03 87.52 59.93 133.93 59.93"/>
   <line fill="none" id="svg_24" stroke="#c7c7c7" stroke-miterlimit="10" x1="203.58" x2="203.58" y1="37.56"/>
   <polygon fill="#ebebeb" id="svg_25" points="226.78 59.92 224.91 64.03 182.23 64.03 180.37 59.92 198.54 47.35 208.61 47.35 226.78 59.92"/>
   <polygon fill="#dbdbdb" id="svg_26" points="209.87 35.23 208.61 47.35 198.54 47.35 197.28 35.23 209.87 35.23"/>
   <polygon fill="#dbdbdb" id="svg_27" points="226.78 59.93 224.91 64.03 182.23 64.03 180.37 59.93 226.78 59.93"/>
   <line fill="none" id="svg_28" stroke="#c7c7c7" stroke-miterlimit="10" x1="296.43" x2="296.43" y1="37.56"/>
   <polygon fill="#ebebeb" id="svg_29" points="319.63 59.92 317.77 64.03 275.08 64.03 273.22 59.92 291.39 47.35 301.46 47.35 319.63 59.92"/>
   <polygon fill="#dbdbdb" id="svg_30" points="302.72 35.23 301.46 47.35 291.39 47.35 290.13 35.23 302.72 35.23"/>
   <polygon fill="#dbdbdb" id="svg_31" points="319.63 59.93 317.76 64.03 275.08 64.03 273.22 59.93 319.63 59.93"/>
   <line fill="none" id="svg_32" stroke="#c7c7c7" stroke-miterlimit="10" x1="389.28" x2="389.28" y1="37.56"/>
   <polygon fill="#ebebeb" id="svg_33" points="412.49 59.92 410.62 64.03 367.93 64.03 366.07 59.92 384.25 47.35 394.31 47.35 412.49 59.92"/>
   <polygon fill="#dbdbdb" id="svg_34" points="395.57 35.23 394.31 47.35 384.25 47.35 382.98 35.23 395.57 35.23"/>
   <polygon fill="#dbdbdb" id="svg_35" points="412.48 59.93 410.62 64.03 367.93 64.03 366.07 59.93 412.48 59.93"/>
  </g>
  <g id="freepik--Shadow--inject-257">
   <ellipse cx="183.79" cy="443.41" fill="#ebebeb" id="svg_36" rx="106.41" ry="16.99"/>
  </g>
  <g id="freepik--Server--inject-257">
   <rect fill="#37474f" height="245.17" id="svg_37" width="65.02" x="267.37" y="176.42"/>
   <rect fill="#455a64" height="245.17" id="svg_38" width="119.66" x="332.39" y="176.42"/>
   <rect fill="#37474f" height="23.84" id="svg_39" width="103.21" x="341.37" y="389.79"/>
   <rect fill="#455a64" height="2.01" id="svg_40" width="58.75" x="345.71" y="393.73"/>
   <rect fill="#455a64" height="2.01" id="svg_41" width="58.75" x="345.71" y="397.22"/>
   <rect fill="#455a64" height="2.01" id="svg_42" width="58.75" x="345.71" y="400.71"/>
   <rect fill="#455a64" height="2.01" id="svg_43" width="58.75" x="345.71" y="404.19"/>
   <rect fill="#455a64" height="2.01" id="svg_44" width="58.75" x="345.71" y="407.68"/>
   <path d="m415.17,395.73a2,2 0 1 1 -2,-2a2,2 0 0 1 2,2z" fill="#92E3A9" id="svg_45"/>
   <path d="m421.75,395.73a2,2 0 1 1 -2,-2a2,2 0 0 1 2,2z" fill="#92E3A9" id="svg_46"/>
   <path d="m428.33,395.73a2,2 0 1 1 -2,-2a2,2 0 0 1 2,2z" fill="#92E3A9" id="svg_47"/>
   <path d="m434.9,395.73a2,2 0 1 1 -2,-2a2,2 0 0 1 2,2z" fill="#92E3A9" id="svg_48"/>
   <path d="m441.48,395.73a2,2 0 1 1 -2,-2a2,2 0 0 1 2,2z" fill="#92E3A9" id="svg_49"/>
   <path d="m415.17,401.71a2,2 0 1 1 -2,-2a2,2 0 0 1 2,2z" fill="#92E3A9" id="svg_50"/>
   <path d="m421.75,401.71a2,2 0 1 1 -2,-2a2,2 0 0 1 2,2z" fill="#92E3A9" id="svg_51"/>
   <path d="m428.33,401.71a2,2 0 1 1 -2,-2a2,2 0 0 1 2,2z" fill="#92E3A9" id="svg_52"/>
   <path d="m434.9,401.71a2,2 0 1 1 -2,-2a2,2 0 0 1 2,2z" fill="#92E3A9" id="svg_53"/>
   <path d="m441.48,401.71a2,2 0 1 1 -2,-2a2,2 0 0 1 2,2z" fill="#92E3A9" id="svg_54"/>
   <circle cx="413.18" cy="407.7" fill="#92E3A9" id="svg_55" r="2"/>
   <path d="m421.75,407.7a2,2 0 1 1 -2,-2a2,2 0 0 1 2,2z" fill="#92E3A9" id="svg_56"/>
   <circle cx="426.33" cy="407.7" fill="#92E3A9" id="svg_57" r="2"/>
   <path d="m434.9,407.7a2,2 0 1 1 -2,-2a2,2 0 0 1 2,2z" fill="#92E3A9" id="svg_58"/>
   <path d="m441.48,407.7a2,2 0 1 1 -2,-2a2,2 0 0 1 2,2z" fill="#92E3A9" id="svg_59"/>
   <rect fill="#263238" height="15.96" id="svg_60" width="1.15" x="407.4" y="393.73"/>
   <rect fill="#37474f" height="23.84" id="svg_61" width="103.21" x="341.37" y="361.07"/>
   <rect fill="#455a64" height="2.01" id="svg_62" width="58.75" x="345.71" y="365"/>
   <rect fill="#455a64" height="2.01" id="svg_63" width="58.75" x="345.71" y="368.49"/>
   <rect fill="#455a64" height="2.01" id="svg_64" width="58.75" x="345.71" y="371.98"/>
   <rect fill="#455a64" height="2.01" id="svg_65" width="58.75" x="345.71" y="375.47"/>
   <rect fill="#455a64" height="2.01" id="svg_66" width="58.75" x="345.71" y="378.95"/>
   <path d="m415.17,367a2,2 0 1 1 -2,-2a2,2 0 0 1 2,2z" fill="#92E3A9" id="svg_67"/>
   <path d="m421.75,367a2,2 0 1 1 -2,-2a2,2 0 0 1 2,2z" fill="#92E3A9" id="svg_68"/>
   <path d="m428.33,367a2,2 0 1 1 -2,-2a2,2 0 0 1 2,2z" fill="#92E3A9" id="svg_69"/>
   <path d="m434.9,367a2,2 0 1 1 -2,-2a2,2 0 0 1 2,2z" fill="#92E3A9" id="svg_70"/>
   <path d="m441.48,367a2,2 0 1 1 -2,-2a2,2 0 0 1 2,2z" fill="#92E3A9" id="svg_71"/>
   <path d="m415.17,373a2,2 0 1 1 -2,-2a2,2 0 0 1 2,2z" fill="#92E3A9" id="svg_72"/>
   <path d="m421.75,373a2,2 0 1 1 -2,-2a2,2 0 0 1 2,2z" fill="#92E3A9" id="svg_73"/>
   <path d="m428.33,373a2,2 0 1 1 -2,-2a2,2 0 0 1 2,2z" fill="#92E3A9" id="svg_74"/>
   <path d="m434.9,373a2,2 0 1 1 -2,-2a2,2 0 0 1 2,2z" fill="#92E3A9" id="svg_75"/>
   <path d="m441.48,373a2,2 0 1 1 -2,-2a2,2 0 0 1 2,2z" fill="#92E3A9" id="svg_76"/>
   <path d="m415.17,379a2,2 0 1 1 -2,-2a2,2 0 0 1 2,2z" fill="#92E3A9" id="svg_77"/>
   <path d="m421.75,379a2,2 0 1 1 -2,-2a2,2 0 0 1 2,2z" fill="#92E3A9" id="svg_78"/>
   <path d="m428.33,379a2,2 0 1 1 -2,-2a2,2 0 0 1 2,2z" fill="#92E3A9" id="svg_79"/>
   <path d="m434.9,379a2,2 0 1 1 -2,-2a2,2 0 0 1 2,2z" fill="#92E3A9" id="svg_80"/>
   <path d="m441.48,379a2,2 0 1 1 -2,-2a2,2 0 0 1 2,2z" fill="#92E3A9" id="svg_81"/>
   <rect fill="#263238" height="15.96" id="svg_82" width="1.15" x="407.4" y="365"/>
   <rect fill="#37474f" height="23.84" id="svg_83" width="103.21" x="341.37" y="332.34"/>
   <rect fill="#455a64" height="2.01" id="svg_84" width="58.75" x="345.71" y="336.28"/>
   <rect fill="#455a64" height="2.01" id="svg_85" width="58.75" x="345.71" y="339.76"/>
   <rect fill="#455a64" height="2.01" id="svg_86" width="58.75" x="345.71" y="343.25"/>
   <rect fill="#455a64" height="2.01" id="svg_87" width="58.75" x="345.71" y="346.74"/>
   <rect fill="#455a64" height="2.01" id="svg_88" width="58.75" x="345.71" y="350.23"/>
   <circle cx="413.18" cy="338.27" fill="#92E3A9" id="svg_89" r="2"/>
   <path d="m421.75,338.27a2,2 0 1 1 -2,-2a2,2 0 0 1 2,2z" fill="#92E3A9" id="svg_90"/>
   <circle cx="426.33" cy="338.27" fill="#92E3A9" id="svg_91" r="2"/>
   <path d="m434.9,338.27a2,2 0 1 1 -2,-2a2,2 0 0 1 2,2z" fill="#92E3A9" id="svg_92"/>
   <path d="m441.48,338.27a2,2 0 1 1 -2,-2a2,2 0 0 1 2,2z" fill="#92E3A9" id="svg_93"/>
   <path d="m415.17,344.26a2,2 0 1 1 -2,-2a2,2 0 0 1 2,2z" fill="#92E3A9" id="svg_94"/>
   <path d="m421.75,344.26a2,2 0 1 1 -2,-2a2,2 0 0 1 2,2z" fill="#92E3A9" id="svg_95"/>
   <path d="m428.33,344.26a2,2 0 1 1 -2,-2a2,2 0 0 1 2,2z" fill="#92E3A9" id="svg_96"/>
   <path d="m434.9,344.26a2,2 0 1 1 -2,-2a2,2 0 0 1 2,2z" fill="#92E3A9" id="svg_97"/>
   <path d="m441.48,344.26a2,2 0 1 1 -2,-2a2,2 0 0 1 2,2z" fill="#92E3A9" id="svg_98"/>
   <path d="m415.17,350.24a2,2 0 1 1 -2,-2a2,2 0 0 1 2,2z" fill="#92E3A9" id="svg_99"/>
   <path d="m421.75,350.24a2,2 0 1 1 -2,-2a2,2 0 0 1 2,2z" fill="#92E3A9" id="svg_100"/>
   <path d="m428.33,350.24a2,2 0 1 1 -2,-2a2,2 0 0 1 2,2z" fill="#92E3A9" id="svg_101"/>
   <path d="m434.9,350.24a2,2 0 1 1 -2,-2a2,2 0 0 1 2,2z" fill="#92E3A9" id="svg_102"/>
   <path d="m441.48,350.24a2,2 0 1 1 -2,-2a2,2 0 0 1 2,2z" fill="#92E3A9" id="svg_103"/>
   <rect fill="#263238" height="15.96" id="svg_104" width="1.15" x="407.4" y="336.28"/>
   <rect fill="#37474f" height="23.84" id="svg_105" width="103.21" x="341.37" y="303.61"/>
   <rect fill="#455a64" height="2.01" id="svg_106" width="58.75" x="345.71" y="307.55"/>
   <rect fill="#455a64" height="2.01" id="svg_107" width="58.75" x="345.71" y="311.03"/>
   <rect fill="#455a64" height="2.01" id="svg_108" width="58.75" x="345.71" y="314.52"/>
   <rect fill="#455a64" height="2.01" id="svg_109" width="58.75" x="345.71" y="318.01"/>
   <rect fill="#455a64" height="2.01" id="svg_110" width="58.75" x="345.71" y="321.5"/>
   <path d="m415.17,309.54a2,2 0 1 1 -2,-2a2,2 0 0 1 2,2z" fill="#92E3A9" id="svg_111"/>
   <path d="m421.75,309.54a2,2 0 1 1 -2,-2a2,2 0 0 1 2,2z" fill="#92E3A9" id="svg_112"/>
   <path d="m428.33,309.54a2,2 0 1 1 -2,-2a2,2 0 0 1 2,2z" fill="#92E3A9" id="svg_113"/>
   <path d="m434.9,309.54a2,2 0 1 1 -2,-2a2,2 0 0 1 2,2z" fill="#92E3A9" id="svg_114"/>
   <path d="m441.48,309.54a2,2 0 1 1 -2,-2a2,2 0 0 1 2,2z" fill="#92E3A9" id="svg_115"/>
   <circle cx="413.18" cy="315.53" fill="#92E3A9" id="svg_116" r="2"/>
   <path d="m421.75,315.53a2,2 0 1 1 -2,-2a2,2 0 0 1 2,2z" fill="#92E3A9" id="svg_117"/>
   <circle cx="426.33" cy="315.53" fill="#92E3A9" id="svg_118" r="2"/>
   <path d="m434.9,315.53a2,2 0 1 1 -2,-2a2,2 0 0 1 2,2z" fill="#92E3A9" id="svg_119"/>
   <path d="m441.48,315.53a2,2 0 1 1 -2,-2a2,2 0 0 1 2,2z" fill="#92E3A9" id="svg_120"/>
   <circle cx="413.18" cy="321.51" fill="#92E3A9" id="svg_121" r="2"/>
   <path d="m421.75,321.51a2,2 0 1 1 -2,-2a2,2 0 0 1 2,2z" fill="#92E3A9" id="svg_122"/>
   <circle cx="426.33" cy="321.51" fill="#92E3A9" id="svg_123" r="2"/>
   <path d="m434.9,321.51a2,2 0 1 1 -2,-2a2,2 0 0 1 2,2z" fill="#92E3A9" id="svg_124"/>
   <path d="m441.48,321.51a2,2 0 1 1 -2,-2a2,2 0 0 1 2,2z" fill="#92E3A9" id="svg_125"/>
   <rect fill="#263238" height="15.96" id="svg_126" width="1.15" x="407.4" y="307.55"/>
   <rect fill="#37474f" height="23.84" id="svg_127" width="103.21" x="341.37" y="274.88"/>
   <rect fill="#455a64" height="2.01" id="svg_128" width="58.75" x="345.71" y="278.82"/>
   <rect fill="#455a64" height="2.01" id="svg_129" width="58.75" x="345.71" y="282.31"/>
   <rect fill="#455a64" height="2.01" id="svg_130" width="58.75" x="345.71" y="285.79"/>
   <rect fill="#455a64" height="2.01" id="svg_131" width="58.75" x="345.71" y="289.28"/>
   <rect fill="#455a64" height="2.01" id="svg_132" width="58.75" x="345.71" y="292.77"/>
   <circle cx="413.18" cy="280.82" fill="#92E3A9" id="svg_133" r="2"/>
   <path d="m421.75,280.82a2,2 0 1 1 -2,-2a2,2 0 0 1 2,2z" fill="#92E3A9" id="svg_134"/>
   <circle cx="426.33" cy="280.82" fill="#92E3A9" id="svg_135" r="2"/>
   <path d="m434.9,280.82a2,2 0 1 1 -2,-2a2,2 0 0 1 2,2z" fill="#92E3A9" id="svg_136"/>
   <path d="m441.48,280.82a2,2 0 1 1 -2,-2a2,2 0 0 1 2,2z" fill="#92E3A9" id="svg_137"/>
   <circle cx="413.18" cy="286.8" fill="#92E3A9" id="svg_138" r="2"/>
   <path d="m421.75,286.8a2,2 0 1 1 -2,-2a2,2 0 0 1 2,2z" fill="#92E3A9" id="svg_139"/>
   <circle cx="426.33" cy="286.8" fill="#92E3A9" id="svg_140" r="2"/>
   <path d="m434.9,286.8a2,2 0 1 1 -2,-2a2,2 0 0 1 2,2z" fill="#92E3A9" id="svg_141"/>
   <path d="m441.48,286.8a2,2 0 1 1 -2,-2a2,2 0 0 1 2,2z" fill="#92E3A9" id="svg_142"/>
   <path d="m415.17,292.79a2,2 0 1 1 -2,-2a2,2 0 0 1 2,2z" fill="#92E3A9" id="svg_143"/>
   <path d="m421.75,292.79a2,2 0 1 1 -2,-2a2,2 0 0 1 2,2z" fill="#92E3A9" id="svg_144"/>
   <path d="m428.33,292.79a2,2 0 1 1 -2,-2a2,2 0 0 1 2,2z" fill="#92E3A9" id="svg_145"/>
   <path d="m434.9,292.79a2,2 0 1 1 -2,-2a2,2 0 0 1 2,2z" fill="#92E3A9" id="svg_146"/>
   <path d="m441.48,292.79a2,2 0 1 1 -2,-2a2,2 0 0 1 2,2z" fill="#92E3A9" id="svg_147"/>
   <rect fill="#263238" height="15.96" id="svg_148" width="1.15" x="407.4" y="278.82"/>
   <rect fill="#37474f" height="23.84" id="svg_149" width="103.21" x="341.37" y="246.15"/>
   <rect fill="#455a64" height="2.01" id="svg_150" width="58.75" x="345.71" y="250.09"/>
   <rect fill="#455a64" height="2.01" id="svg_151" width="58.75" x="345.71" y="253.58"/>
   <rect fill="#455a64" height="2.01" id="svg_152" width="58.75" x="345.71" y="257.07"/>
   <rect fill="#455a64" height="2.01" id="svg_153" width="58.75" x="345.71" y="260.55"/>
   <rect fill="#455a64" height="2.01" id="svg_154" width="58.75" x="345.71" y="264.04"/>
   <path d="m415.17,252.09a2,2 0 1 1 -2,-2a2,2 0 0 1 2,2z" fill="#92E3A9" id="svg_155"/>
   <path d="m421.75,252.09a2,2 0 1 1 -2,-2a2,2 0 0 1 2,2z" fill="#92E3A9" id="svg_156"/>
   <path d="m428.33,252.09a2,2 0 1 1 -2,-2a2,2 0 0 1 2,2z" fill="#92E3A9" id="svg_157"/>
   <path d="m434.9,252.09a2,2 0 1 1 -2,-2a2,2 0 0 1 2,2z" fill="#92E3A9" id="svg_158"/>
   <path d="m441.48,252.09a2,2 0 1 1 -2,-2a2,2 0 0 1 2,2z" fill="#92E3A9" id="svg_159"/>
   <path d="m415.17,258.07a2,2 0 1 1 -2,-2a2,2 0 0 1 2,2z" fill="#92E3A9" id="svg_160"/>
   <path d="m421.75,258.07a2,2 0 1 1 -2,-2a2,2 0 0 1 2,2z" fill="#92E3A9" id="svg_161"/>
   <path d="m428.33,258.07a2,2 0 1 1 -2,-2a2,2 0 0 1 2,2z" fill="#92E3A9" id="svg_162"/>
   <path d="m434.9,258.07a2,2 0 1 1 -2,-2a2,2 0 0 1 2,2z" fill="#92E3A9" id="svg_163"/>
   <path d="m441.48,258.07a2,2 0 1 1 -2,-2a2,2 0 0 1 2,2z" fill="#92E3A9" id="svg_164"/>
   <path d="m415.17,264.06a2,2 0 1 1 -2,-2a2,2 0 0 1 2,2z" fill="#92E3A9" id="svg_165"/>
   <path d="m421.75,264.06a2,2 0 1 1 -2,-2a2,2 0 0 1 2,2z" fill="#92E3A9" id="svg_166"/>
   <path d="m428.33,264.06a2,2 0 1 1 -2,-2a2,2 0 0 1 2,2z" fill="#92E3A9" id="svg_167"/>
   <path d="m434.9,264.06a2,2 0 1 1 -2,-2a2,2 0 0 1 2,2z" fill="#92E3A9" id="svg_168"/>
   <path d="m441.48,264.06a2,2 0 1 1 -2,-2a2,2 0 0 1 2,2z" fill="#92E3A9" id="svg_169"/>
   <rect fill="#263238" height="15.96" id="svg_170" width="1.15" x="407.4" y="250.09"/>
   <rect fill="#37474f" height="23.84" id="svg_171" width="103.21" x="341.37" y="217.43"/>
   <rect fill="#455a64" height="2.01" id="svg_172" width="58.75" x="345.71" y="221.36"/>
   <rect fill="#455a64" height="2.01" id="svg_173" width="58.75" x="345.71" y="224.85"/>
   <rect fill="#455a64" height="2.01" id="svg_174" width="58.75" x="345.71" y="228.34"/>
   <rect fill="#455a64" height="2.01" id="svg_175" width="58.75" x="345.71" y="231.83"/>
   <rect fill="#455a64" height="2.01" id="svg_176" width="58.75" x="345.71" y="235.31"/>
   <path d="m415.17,223.36a2,2 0 1 1 -2,-2a2,2 0 0 1 2,2z" fill="#92E3A9" id="svg_177"/>
   <path d="m421.75,223.36a2,2 0 1 1 -2,-2a2,2 0 0 1 2,2z" fill="#92E3A9" id="svg_178"/>
   <path d="m428.33,223.36a2,2 0 1 1 -2,-2a2,2 0 0 1 2,2z" fill="#92E3A9" id="svg_179"/>
   <path d="m434.9,223.36a2,2 0 1 1 -2,-2a2,2 0 0 1 2,2z" fill="#92E3A9" id="svg_180"/>
   <path d="m441.48,223.36a2,2 0 1 1 -2,-2a2,2 0 0 1 2,2z" fill="#92E3A9" id="svg_181"/>
   <path d="m415.17,229.35a2,2 0 1 1 -2,-2a2,2 0 0 1 2,2z" fill="#92E3A9" id="svg_182"/>
   <path d="m421.75,229.35a2,2 0 1 1 -2,-2a2,2 0 0 1 2,2z" fill="#92E3A9" id="svg_183"/>
   <path d="m428.33,229.35a2,2 0 1 1 -2,-2a2,2 0 0 1 2,2z" fill="#92E3A9" id="svg_184"/>
   <path d="m434.9,229.35a2,2 0 1 1 -2,-2a2,2 0 0 1 2,2z" fill="#92E3A9" id="svg_185"/>
   <path d="m441.48,229.35a2,2 0 1 1 -2,-2a2,2 0 0 1 2,2z" fill="#92E3A9" id="svg_186"/>
   <path d="m415.17,235.33a2,2 0 1 1 -2,-2a2,2 0 0 1 2,2z" fill="#92E3A9" id="svg_187"/>
   <path d="m421.75,235.33a2,2 0 1 1 -2,-2a2,2 0 0 1 2,2z" fill="#92E3A9" id="svg_188"/>
   <path d="m428.33,235.33a2,2 0 1 1 -2,-2a2,2 0 0 1 2,2z" fill="#92E3A9" id="svg_189"/>
   <path d="m434.9,235.33a2,2 0 1 1 -2,-2a2,2 0 0 1 2,2z" fill="#92E3A9" id="svg_190"/>
   <path d="m441.48,235.33a2,2 0 1 1 -2,-2a2,2 0 0 1 2,2z" fill="#92E3A9" id="svg_191"/>
   <rect fill="#263238" height="15.96" id="svg_192" width="1.15" x="407.4" y="221.36"/>
   <rect fill="#37474f" height="23.84" id="svg_193" width="103.21" x="341.37" y="188.7"/>
   <rect fill="#455a64" height="2.01" id="svg_194" width="58.75" x="345.71" y="192.64"/>
   <rect fill="#455a64" height="2.01" id="svg_195" width="58.75" x="345.71" y="196.12"/>
   <rect fill="#455a64" height="2.01" id="svg_196" width="58.75" x="345.71" y="199.61"/>
   <rect fill="#455a64" height="2.01" id="svg_197" width="58.75" x="345.71" y="203.1"/>
   <rect fill="#455a64" height="2.01" id="svg_198" width="58.75" x="345.71" y="206.59"/>
   <path d="m415.17,194.63a2,2 0 1 1 -2,-2a2,2 0 0 1 2,2z" fill="#92E3A9" id="svg_199"/>
   <path d="m421.75,194.63a2,2 0 1 1 -2,-2a2,2 0 0 1 2,2z" fill="#92E3A9" id="svg_200"/>
   <path d="m428.33,194.63a2,2 0 1 1 -2,-2a2,2 0 0 1 2,2z" fill="#92E3A9" id="svg_201"/>
   <path d="m434.9,194.63a2,2 0 1 1 -2,-2a2,2 0 0 1 2,2z" fill="#92E3A9" id="svg_202"/>
   <path d="m441.48,194.63a2,2 0 1 1 -2,-2a2,2 0 0 1 2,2z" fill="#92E3A9" id="svg_203"/>
   <circle cx="413.18" cy="200.62" fill="#92E3A9" id="svg_204" r="2"/>
   <path d="m421.75,200.62a2,2 0 1 1 -2,-2a2,2 0 0 1 2,2z" fill="#92E3A9" id="svg_205"/>
   <circle cx="426.33" cy="200.62" fill="#92E3A9" id="svg_206" r="2"/>
   <path d="m434.9,200.62a2,2 0 1 1 -2,-2a2,2 0 0 1 2,2z" fill="#92E3A9" id="svg_207"/>
   <path d="m441.48,200.62a2,2 0 1 1 -2,-2a2,2 0 0 1 2,2z" fill="#92E3A9" id="svg_208"/>
   <path d="m415.17,206.6a2,2 0 1 1 -2,-2a2,2 0 0 1 2,2z" fill="#92E3A9" id="svg_209"/>
   <path d="m421.75,206.6a2,2 0 1 1 -2,-2a2,2 0 0 1 2,2z" fill="#92E3A9" id="svg_210"/>
   <path d="m428.33,206.6a2,2 0 1 1 -2,-2a2,2 0 0 1 2,2z" fill="#92E3A9" id="svg_211"/>
   <path d="m434.9,206.6a2,2 0 1 1 -2,-2a2,2 0 0 1 2,2z" fill="#92E3A9" id="svg_212"/>
   <path d="m441.48,206.6a2,2 0 1 1 -2,-2a2,2 0 0 1 2,2z" fill="#92E3A9" id="svg_213"/>
   <rect fill="#263238" height="15.96" id="svg_214" width="1.15" x="407.4" y="192.64"/>
   <rect fill="#37474f" height="7.56" id="svg_215" width="136.05" x="291.69" y="168.86"/>
   <rect fill="#263238" height="15.19" id="svg_216" width="15.19" x="277.86" y="384.07"/>
  </g>
  <g id="freepik--Texts--inject-257"/>
  <g id="freepik--wall-plug--inject-257">
   <rect fill="#37474f" height="26.56" id="svg_239" width="26.56" x="43.46" y="353.74"/>
   <circle cx="56.74" cy="367.01" fill="#455a64" id="svg_240" r="8.87"/>
   <rect fill="#263238" height="7.32" id="svg_241" width="2" x="53.12" y="363.43"/>
   <rect fill="#263238" height="7.32" id="svg_242" width="2" x="58.68" y="363.43"/>
  </g>
  <g id="freepik--Floor--inject-257">
   <polygon fill="#263238" id="svg_243" points="36.85 421.59 90.14 421.35 143.43 421.26 250 421.09 356.57 421.26 409.86 421.35 463.15 421.59 409.86 421.84 356.57 421.93 250 422.09 143.43 421.92 90.14 421.83 36.85 421.59"/>
  </g>
  <g id="freepik--Dog--inject-257">
   <path d="m128.08,396.52c1,2.12 -2.84,17.31 -4,20.43s-5.39,20.53 -7.43,21.28s-11.93,0.54 -13.33,0s0,-3.51 1.61,-4.55s3.54,-2.63 3.54,-2.63s-2.89,-26.89 -2.35,-29.9s19.36,-10.32 21.96,-4.63z" fill="#92E3A9" id="svg_244"/>
   <path d="m128.08,396.52c1,2.12 -2.84,17.31 -4,20.43s-5.39,20.53 -7.43,21.28s-11.93,0.54 -13.33,0s0,-3.51 1.61,-4.55s3.54,-2.63 3.54,-2.63s-2.89,-26.89 -2.35,-29.9s19.36,-10.32 21.96,-4.63z" id="svg_245" opacity="0.1"/>
   <path d="m107.4,437.06a3.9,3.9 0 0 1 0.65,-1.49a5.6,5.6 0 0 1 1.13,-1.15a3.68,3.68 0 0 1 1.42,-0.69a0.07,0.07 0 0 1 0.07,0.12c-0.18,0.16 -0.38,0.3 -0.55,0.47s-0.36,0.35 -0.52,0.53a6.07,6.07 0 0 0 -0.85,1.16c-0.25,0.41 -0.48,0.83 -0.7,1.27s-0.33,0.91 -0.5,1.37a0.1,0.1 0 0 1 -0.2,0a3.67,3.67 0 0 1 0.05,-1.59z" id="svg_246" opacity="0.1"/>
   <path d="m104.51,435.48a5,5 0 0 1 2.41,-2.11c0.07,0 0.14,0.05 0.08,0.1a8.13,8.13 0 0 0 -1.92,2.17a3.66,3.66 0 0 0 -0.38,2.85s0,0.06 -0.07,0a2.92,2.92 0 0 1 -0.12,-3.01z" id="svg_247" opacity="0.1"/>
   <path d="m106.94,416l13.59,12.86c1.5,-4.93 2.9,-10.29 3.51,-11.88c1.2,-3.12 5,-18.31 4,-20.43c-2.61,-5.69 -21.48,1.62 -22,4.63c-0.21,1.39 0.29,8.09 0.9,14.82z" id="svg_248" opacity="0.1"/>
   <path d="m179.41,411.72c0.55,0.52 5.9,-4.54 6.72,-6.91s-2.6,-9.06 -2,-10.2s3.55,-2.05 5.06,-0.3s5.38,11.34 4.58,15.44s-9.03,13.25 -9.9,13.25s-4.46,-11.28 -4.46,-11.28z" fill="#92E3A9" id="svg_249"/>
   <path d="m179.41,411.72s3.61,11.2 4.46,11.25c0.63,0 5.21,-4.86 7.95,-9.09l-7.49,-6.31c-1.89,2.23 -4.54,4.51 -4.92,4.15z" id="svg_250" opacity="0.1"/>
   <path d="m149.19,365.46l-44.4,0s-3.3,29.24 -2.94,33.11s19.87,32.54 25.92,36.24s40.83,3.88 49.29,2c6.58,-1.45 12.07,-9.85 9.34,-22.78c-1.19,-5.66 -16.61,-19.14 -18.76,-21.72s-18.45,-26.85 -18.45,-26.85z" fill="#c7c7c7" id="svg_251"/>
   <path d="m101.85,398.57c0.36,3.87 19.87,32.54 25.93,36.24s40.82,3.88 49.29,2c6.57,-1.45 12.07,-9.85 9.33,-22.79c-1.19,-5.65 -16.6,-19.13 -18.75,-21.71c-1.32,-1.58 -7.94,-11.3 -12.88,-18.6c-3.13,-4.62 -5.58,-8.27 -5.58,-8.27l-44.4,0s-0.83,7.34 -1.61,15.15s-1.51,16.05 -1.33,17.98z" fill="#92E3A9" id="svg_252"/>
   <path d="m103.18,380.61c23.86,7.36 45.08,-3.11 51.59,-6.88c-3.13,-4.62 -5.58,-8.27 -5.58,-8.27l-44.4,0s-0.79,7.34 -1.61,15.15z" id="svg_253" opacity="0.1"/>
   <path d="m177.91,412.64s-12.22,-7.67 -20.79,-6.29s-11.6,19 -7.49,28.89c0,0 -7.82,2.32 -7.82,6.1c0,2.15 4.47,2.84 10.91,2.68s19.26,-0.28 19.54,-1.9a7.68,7.68 0 0 0 -0.84,-3.85s11.57,-1.3 13.84,-9s-5.42,-15.34 -7.35,-16.63z" fill="#92E3A9" id="svg_254"/>
   <path d="m161.22,436.11a31.06,31.06 0 0 0 10.29,2.28c0.07,0 0.09,0.12 0,0.13a16.82,16.82 0 0 1 -10.33,-2.33c-0.04,-0.02 -0.01,-0.11 0.04,-0.08z" id="svg_255" opacity="0.1"/>
   <path d="m146.84,444.07a6,6 0 0 1 2.66,-3.44a9.23,9.23 0 0 1 2.26,-1.14c0.92,-0.31 1.86,-0.48 2.79,-0.77c0.07,0 0.13,0.09 0,0.12a15,15 0 0 0 -2.3,1.06a22.45,22.45 0 0 0 -2.17,1.28a13.51,13.51 0 0 0 -3,3c-0.03,0.13 -0.28,0.06 -0.24,-0.11z" id="svg_256" opacity="0.1"/>
   <path d="m148.42,438a0.06,0.06 0 0 1 0,0.12a9.84,9.84 0 0 0 -5.26,5.22c0,0.1 -0.22,0.1 -0.2,0a6.27,6.27 0 0 1 5.46,-5.34z" id="svg_257" opacity="0.1"/>
   <path d="m144.61,437.45s0,0.06 0,0.05a25.61,25.61 0 0 1 4.81,-2.21c0.2,0.35 0.41,0.7 0.64,1c0,0.07 0.15,0 0.11,-0.06a22.3,22.3 0 0 1 -2.14,-9.88a48.93,48.93 0 0 1 0.32,-5.41a0,0 0 0 1 0,0a26.51,26.51 0 0 1 2.9,-9a10.84,10.84 0 0 1 3.77,-4.34a10.46,10.46 0 0 1 5.65,-1a26,26 0 0 1 5.9,1.09a45.74,45.74 0 0 1 5.72,2a31.69,31.69 0 0 0 -11.56,-3.87a10.58,10.58 0 0 0 -6.16,1a11.77,11.77 0 0 0 -4.2,4.64a27.93,27.93 0 0 0 -3.07,11.88c0,0.47 0,0.95 0,1.42l0,0c0,0.63 0,1.25 0,1.88a18.69,18.69 0 0 0 2.11,8.53a9.08,9.08 0 0 0 -4.8,2.28z" id="svg_258" opacity="0.1"/>
   <path d="m142.43,400.29c1,2.11 -2.84,17.3 -4,20.42s-5.43,20.53 -7.43,21.29s-11.93,0.54 -13.33,0s0,-3.51 1.61,-4.55s3.53,-2.63 3.53,-2.63s-2.88,-26.89 -2.35,-29.9s19.37,-10.33 21.97,-4.63z" fill="#92E3A9" id="svg_259"/>
   <path d="m135.77,429.15c0.91,-2.74 2.1,-5.4 3,-8.13c0,-0.11 0.21,-0.06 0.17,0.05c-0.7,2.2 -1.23,4.46 -1.89,6.68c0.1,-0.15 0.19,-0.31 0.28,-0.46a10.87,10.87 0 0 0 1.57,-2.77a0.09,0.09 0 0 1 0.18,0.05a6.42,6.42 0 0 1 -0.59,1.34c-0.26,0.49 -0.53,1 -0.8,1.47s-0.71,1.26 -1.1,1.87c0,0.05 0,0.09 0,0.13a78.59,78.59 0 0 1 -3,8.13a0.13,0.13 0 0 1 -0.24,-0.07a85.77,85.77 0 0 1 2.42,-8.29z" id="svg_260" opacity="0.1"/>
   <path d="m120.05,409.2c0,-0.05 0.11,-0.07 0.12,0c0.29,2 0.41,4.1 0.62,6.15s0.47,4.25 0.7,6.38c0.47,4.23 1.18,8.45 1.52,12.69c0,0.18 -0.31,0.2 -0.36,0a77.9,77.9 0 0 1 -2.05,-12.42c-0.22,-2.08 -0.35,-4.16 -0.45,-6.24a59.07,59.07 0 0 1 -0.1,-6.56z" id="svg_261" opacity="0.1"/>
   <path d="m121.27,440.61a3.73,3.73 0 0 1 0.64,-1.49a5.4,5.4 0 0 1 1.14,-1.15a3.55,3.55 0 0 1 1.42,-0.69a0.07,0.07 0 0 1 0.06,0.12c-0.18,0.17 -0.38,0.3 -0.55,0.47l-0.52,0.53a6.91,6.91 0 0 0 -0.85,1.16c-0.24,0.41 -0.48,0.83 -0.69,1.27s-0.34,0.91 -0.51,1.37a0.1,0.1 0 0 1 -0.19,0a3.52,3.52 0 0 1 0.05,-1.59z" id="svg_262" opacity="0.1"/>
   <path d="m118.37,439a5,5 0 0 1 2.42,-2.11c0.06,0 0.13,0.05 0.07,0.1a7.92,7.92 0 0 0 -1.91,2.17a3.57,3.57 0 0 0 -0.38,2.85s0,0.06 -0.07,0a2.92,2.92 0 0 1 -0.13,-3.01z" id="svg_263" opacity="0.1"/>
   <path d="m121.78,324.81c0.48,-1.76 -3.9,-8 -5.57,-10.05s-10.86,-5.22 -13.8,-3.61c-1.15,0.63 -3.29,5.05 -6.18,8.88c-4.48,5.94 -9.7,12.17 -7.8,13.84c4.6,4.07 15.11,-2.35 18.52,-4.5s6.52,-4.78 7.35,-4.69c1.1,0.12 3.4,1.86 4.33,2a3.23,3.23 0 0 0 3.15,-1.87z" fill="#92E3A9" id="svg_264"/>
   <path d="m121.78,324.81c0.48,-1.76 -3.9,-8 -5.57,-10.05s-10.86,-5.22 -13.8,-3.61c-1.15,0.63 -3.29,5.05 -6.18,8.88c-4.48,5.94 -9.7,12.17 -7.8,13.84c4.6,4.07 15.11,-2.35 18.52,-4.5s6.52,-4.78 7.35,-4.69c1.1,0.12 3.4,1.86 4.33,2a3.23,3.23 0 0 0 3.15,-1.87z" id="svg_265" opacity="0.1"/>
   <path d="m143,318.59c10.73,6.42 15.49,23.48 15.78,26.21c0.24,2.22 5.35,10.1 4.44,18.57c-0.59,5.44 -10.37,12.67 -18.33,12.6c-1.46,0 -13.85,4.48 -24.32,3.76s-18.39,-8.15 -18.7,-8.78s-8.87,-1.85 -9.37,-10.6c-0.85,-14 13.4,-37.76 17.47,-41c6.75,-5.35 25.69,-5.12 33.03,-0.76z" fill="#92E3A9" id="svg_266"/>
   <path d="m137.9,326c-0.2,-1.9 5.37,-7.61 7.45,-9.5s12.14,-3.61 14.92,-1.45c1.09,0.85 2.58,5.78 4.94,10.24c3.65,6.91 8,14.24 5.8,15.66c-5.46,3.46 -15.3,-4.94 -18.48,-7.75s-6,-6 -6.85,-6.08c-1.16,-0.06 -3.84,1.36 -4.81,1.31a3.41,3.41 0 0 1 -2.97,-2.43z" fill="#92E3A9" id="svg_267"/>
   <path d="m137.9,326c-0.2,-1.9 5.37,-7.61 7.45,-9.5s12.14,-3.61 14.92,-1.45c1.09,0.85 2.58,5.78 4.94,10.24c3.65,6.91 8,14.24 5.8,15.66c-5.46,3.46 -15.3,-4.94 -18.48,-7.75s-6,-6 -6.85,-6.08c-1.16,-0.06 -3.84,1.36 -4.81,1.31a3.41,3.41 0 0 1 -2.97,-2.43z" id="svg_268" opacity="0.1"/>
   <path d="m118.3,349.93c6.58,0.06 9.58,7.11 10.37,8.94s4.86,6 5,10.43s-8.23,9.3 -17,7.75s-13.4,-6.49 -13.35,-10.95c0,-3.59 3.42,-6.7 3.8,-7.64s5.19,-8.59 11.18,-8.53z" id="svg_269" opacity="0.1"/>
   <path d="m134.48,362.31a15.06,15.06 0 0 1 2.21,3.31a14,14 0 0 1 1.29,3.82a6.9,6.9 0 0 1 -0.43,4.1a4.83,4.83 0 0 1 -1.28,1.65a5.75,5.75 0 0 1 -1.79,0.92a5.67,5.67 0 0 0 2.35,-2.87a7.45,7.45 0 0 0 0.16,-3.64a20.22,20.22 0 0 0 -1,-3.67c-0.47,-1.21 -0.99,-2.42 -1.51,-3.62z" id="svg_270" opacity="0.1"/>
   <path d="m104.33,359.68c-0.57,0.71 -1.11,1.4 -1.61,2.1a13,13 0 0 0 -1.27,2.18a7,7 0 0 0 -0.58,2.36a7.36,7.36 0 0 0 0.47,2.51a4.41,4.41 0 0 1 -1.25,-2.46a5.51,5.51 0 0 1 0.45,-2.81a8.3,8.3 0 0 1 3.79,-3.88z" id="svg_271" opacity="0.1"/>
   <path d="m207.14,453.86c-10.77,0 -22.66,-0.19 -34.61,-0.41c-6.16,-0.11 -11,-0.2 -14.06,-0.2c-15.53,0 -20,-20 -24.32,-39.26c-0.6,-2.69 -1.2,-5.38 -1.83,-8c-1.24,-5.17 -2.25,-10.38 -3.24,-15.43c-3,-15.61 -5.67,-29.08 -12.55,-29.82c-9.09,-1 -17.18,12.62 -20.13,33.83l-2,-0.27c3.11,-22.36 12.08,-36.66 22.32,-35.55c8.35,0.89 11.11,15 14.3,31.43c1,5 2,10.22 3.22,15.34c0.64,2.65 1.24,5.36 1.85,8.06c4.34,19.38 8.44,37.69 22.36,37.69c3.05,0 7.93,0.09 14.1,0.2c13.52,0.26 32,0.6 47.7,0.29c25.42,-0.5 28.43,-2.5 28.74,-3.11c0,-4.16 -26.84,-9.16 -36.94,-11.05s-10.6,-2 -10.49,-3.23s1.35,-1.13 3.25,-1.13l41.94,0c13.15,0 17.39,-18.92 19.93,-30.23a42.34,42.34 0 0 1 1.93,-7.13c2.94,-6.12 10.38,-5.23 10.69,-5.19l-0.26,2c-0.26,0 -6.32,-0.74 -8.63,4.07a44,44 0 0 0 -1.78,6.7c-2.67,11.89 -7.12,31.79 -21.88,31.79l-36.4,0l2.09,0.39c24.42,4.56 38.56,8.17 38.56,13.1a1.94,1.94 0 0 1 -0.65,1.42c-2.97,2.89 -20.64,3.7 -43.21,3.7z" fill="#263238" id="svg_272"/>
   <rect fill="#455a64" height="7.37" id="svg_273" transform="translate(23.88 -5) rotate(3.43)" width="12.28" x="89.27" y="392.73"/>
   <rect fill="#37474f" height="2.34" id="svg_274" transform="translate(23.58 -5.02) rotate(3.43)" width="7.66" x="91.87" y="390.4"/>
   <rect fill="#92E3A9" height="5.62" id="svg_275" transform="translate(24.25 -4.79) rotate(3.43)" width="1.45" x="91.51" y="399.92"/>
   <rect fill="#92E3A9" height="5.62" id="svg_276" transform="translate(24.28 -5.13) rotate(3.43)" width="1.44" x="97.06" y="400.25"/>
   <rect fill="#455a64" height="5.37" id="svg_277" transform="translate(-105.93 677.4) rotate(-90)" width="12.28" x="279.59" y="388.98"/>
   <rect fill="#37474f" height="4.34" id="svg_278" transform="translate(-110.78 672.55) rotate(-90)" width="7.66" x="277.05" y="389.5"/>
   <path d="m110,360.6s2.61,3 3.62,2.38s3.54,-6.58 3.54,-6.58s0.61,7.56 2.56,7.77s5.29,-2.78 5.29,-2.78l-7.89,-5.47l-7.12,4.68z" fill="#92E3A9" id="svg_279"/>
   <path d="m110,360.6s2.61,3 3.62,2.38s3.54,-6.58 3.54,-6.58s0.61,7.56 2.56,7.77s5.29,-2.78 5.29,-2.78l-7.89,-5.47l-7.12,4.68z" id="svg_280" opacity="0.1"/>
   <path d="m148.65,351.21a18.76,18.76 0 0 0 0.8,-7.54a13.36,13.36 0 0 0 -0.91,-3.83a9.38,9.38 0 0 0 -1,-1.79a8.76,8.76 0 0 0 -1.34,-1.58a7.2,7.2 0 0 0 -0.81,-0.65c-0.29,-0.2 -0.59,-0.36 -0.88,-0.54l-0.45,-0.25l-0.47,-0.19a8.56,8.56 0 0 0 -1,-0.36a10.59,10.59 0 0 0 -4,-0.38a13.75,13.75 0 0 0 -7.08,2.79a20,20 0 0 1 7.13,-1.31a10.52,10.52 0 0 1 3.37,0.6c0.27,0.08 0.52,0.23 0.78,0.33l0.38,0.17l0.36,0.23c0.23,0.15 0.48,0.28 0.71,0.44a6,6 0 0 1 0.63,0.52a8.14,8.14 0 0 1 1.94,2.69a14.77,14.77 0 0 1 1.09,3.33a35.93,35.93 0 0 1 0.75,7.32z" id="svg_281" opacity="0.1"/>
   <path d="m99.87,346.1a28.54,28.54 0 0 1 1,-6.15a9.2,9.2 0 0 1 3,-4.76a6.73,6.73 0 0 1 1.18,-0.69a4.66,4.66 0 0 1 1.27,-0.35a10.83,10.83 0 0 1 2.89,0.06a40.09,40.09 0 0 1 6.06,1.57a15.32,15.32 0 0 0 -2.69,-1.82c-0.48,-0.25 -1,-0.48 -1.48,-0.7a16.12,16.12 0 0 0 -1.57,-0.54a9.22,9.22 0 0 0 -3.42,-0.38a5.58,5.58 0 0 0 -1.8,0.44a7.54,7.54 0 0 0 -1.56,0.9a7.93,7.93 0 0 0 -2.26,2.71a10.63,10.63 0 0 0 -1,3.23a14.87,14.87 0 0 0 0.38,6.48z" id="svg_282" opacity="0.1"/>
   <path d="m132.36,348.07c0,-0.11 0.26,0.15 0.25,0.28c-0.24,3 0,6.5 3,7.63c0.09,0 0.07,0.19 0,0.17c-3.67,-0.63 -4,-5.26 -3.25,-8.08z" fill="#263238" id="svg_283"/>
   <path d="m135.46,345.05c5.34,-0.14 5.33,9.61 0.38,9.74s-4.84,-9.63 -0.38,-9.74z" fill="#263238" id="svg_284"/>
   <path d="m111.73,345.7c0,-0.11 -0.27,0.12 -0.28,0.25c-0.18,3 -1,6.43 -4,7.14c-0.09,0 -0.1,0.17 0,0.17c3.67,-0.12 4.64,-4.66 4.28,-7.56z" fill="#263238" id="svg_285"/>
   <path d="m109.09,342.28c-5.26,-0.88 -6.62,8.78 -1.74,9.59s6.16,-8.87 1.74,-9.59z" fill="#263238" id="svg_286"/>
   <path d="m116.91,356.12c1,0.31 7.54,-1.77 7,-3.77c-0.55,-2.16 -9.81,-2.67 -11,-1.27s3.01,4.72 4,5.04z" fill="#263238" id="svg_287"/>
   <path d="m125.13,361.29a22.13,22.13 0 0 1 -3.35,2.09a4.46,4.46 0 0 1 -1.82,0.52c-0.38,0.07 -0.7,-0.44 -0.92,-0.93a14.25,14.25 0 0 1 -0.83,-3.19c-0.2,-1.09 -0.31,-2.21 -0.43,-3.3l-0.31,-3l-0.91,2.95c-0.28,0.91 -0.61,1.82 -0.94,2.73a20.82,20.82 0 0 1 -1.18,2.64a3.85,3.85 0 0 1 -0.39,0.6a1.77,1.77 0 0 1 -0.46,0.48a0.83,0.83 0 0 1 -0.55,0.06a3.15,3.15 0 0 1 -0.72,-0.3a10.27,10.27 0 0 1 -2.37,-2.13a7.52,7.52 0 0 0 2,2.46a2.86,2.86 0 0 0 0.87,0.46a2.71,2.71 0 0 0 0.59,0.08a1.4,1.4 0 0 0 0.64,-0.15a2.72,2.72 0 0 0 0.74,-0.6a5.94,5.94 0 0 0 0.5,-0.65a16.62,16.62 0 0 0 1.43,-2.69c0.4,-0.91 0.74,-1.83 1,-2.76l-1.23,-0.09a29.65,29.65 0 0 0 0.46,3.37a16.5,16.5 0 0 0 0.42,1.68a8.7,8.7 0 0 0 0.67,1.67a3.5,3.5 0 0 0 0.59,0.82a1.71,1.71 0 0 0 0.53,0.37a1.31,1.31 0 0 0 0.41,0.12a1.51,1.51 0 0 0 0.37,0a4.89,4.89 0 0 0 2.16,-0.77a13.91,13.91 0 0 0 3.03,-2.54z" fill="#263238" id="svg_288"/>
  </g>
  <g id="freepik--Lines--inject-257">
   <path d="m74.9,395.89a47.15,47.15 0 0 1 11.86,0.81a47.23,47.23 0 0 1 -11.86,-0.81z" fill="#263238" id="svg_289"/>
   <path d="m103.69,402.22a42.64,42.64 0 0 1 5.47,2.34a41.43,41.43 0 0 1 5.13,3a47.1,47.1 0 0 1 -10.6,-5.35l0,0.01z" fill="#263238" id="svg_290"/>
   <path d="m81.25,416a46.89,46.89 0 0 1 7.14,-9.5a41.37,41.37 0 0 1 -3.27,5a41.53,41.53 0 0 1 -3.87,4.5z" fill="#263238" id="svg_291"/>
   <path d="m70,384.07c1.55,0.49 3.06,1.05 4.56,1.63s3,1.2 4.48,1.83s3,1.28 4.41,2s2.92,1.39 4.34,2.17c-1.55,-0.5 -3.06,-1.06 -4.56,-1.64s-3,-1.2 -4.48,-1.83s-3,-1.28 -4.41,-2s-2.91,-1.39 -4.34,-2.16z" fill="#263238" id="svg_292"/>
   <path d="m105.13,392.93a26.48,26.48 0 0 1 4.34,-1.72a25.63,25.63 0 0 1 4.55,-1a28.44,28.44 0 0 1 -8.89,2.73l0,-0.01z" fill="#263238" id="svg_293"/>
   <path d="m90.75,387.87c-0.82,-1.3 -1.56,-2.63 -2.29,-4s-1.43,-2.7 -2.12,-4.07s-1.35,-2.74 -2,-4.14s-1.25,-2.79 -1.79,-4.23c0.82,1.3 1.57,2.64 2.3,4s1.43,2.7 2.12,4.06s1.34,2.74 2,4.14s1.24,2.8 1.78,4.24z" fill="#263238" id="svg_294"/>
   <path d="m111,419.5c-0.89,-1 -1.72,-2.09 -2.53,-3.16s-1.59,-2.18 -2.37,-3.28s-1.51,-2.23 -2.22,-3.38s-1.42,-2.3 -2.06,-3.49c0.89,1 1.72,2.09 2.53,3.16s1.6,2.18 2.37,3.28s1.51,2.23 2.22,3.38s1.42,2.29 2.06,3.49z" fill="#263238" id="svg_295"/>
  </g>
 </g>
</svg>